<svg xmlns="http://www.w3.org/2000/svg" class="excalidraw-svg" filter="invert(93%) hue-rotate(180deg)" viewBox="0 0 1329 547"><path fill="#fff" d="M0 0h1329v547H0z"/><path fill="none" stroke="#1e1e1e" stroke-linecap="round" stroke-width="2" d="M110 178a114 114 0 0 1 71 25 106 106 0 0 1 33 66c2 13 2 26-1 38a117 117 0 0 1-43 62c-10 7-22 12-34 14a115 115 0 0 1-75-12 110 110 0 0 1-47-57c-4-12-5-25-4-38a115 115 0 0 1 30-69c9-8 19-15 32-19 14-5 39-7 49-8 11-1 12 1 12 3m-2-3c12 1 26 8 36 14a114 114 0 0 1 50 96c-2 13-6 27-12 38s-15 20-24 29c-9 8-19 18-30 22-12 5-27 6-39 5a110 110 0 0 1-69-26c-9-8-16-18-21-29s-9-25-10-38c-2-12-2-25 1-38a102 102 0 0 1 46-60c10-6 23-11 35-13 13-2 33 1 39 1 6 1-2 1-2 3"/><text fill="#1e1e1e" dominant-baseline="text-before-edge" font-family="Virgil, Segoe UI Emoji" font-size="20" style="white-space:pre" transform="translate(95 272)">You</text><path fill="none" stroke="#1e1e1e" stroke-linecap="round" stroke-width="2" d="M1193 170c11-4 26-3 39-1a128 128 0 0 1 65 41 109 109 0 0 1 10 111c-6 12-14 25-23 34s-21 16-33 20c-12 5-26 6-39 6s-27-1-39-6a114 114 0 0 1-57-53c-6-11-8-24-10-37-1-12-1-27 2-39a110 110 0 0 1 47-62c12-7 35-14 43-16 9-2 6 0 6 2m50 6c11 3 22 12 31 21s18 22 23 34a100 100 0 0 1 6 77c-4 12-11 24-19 34s-18 20-29 26c-11 7-25 10-38 11a114 114 0 0 1-75-14c-11-7-19-18-27-28-7-11-15-22-19-35-4-12-4-26-3-39a126 126 0 0 1 38-70c10-8 22-15 34-20 13-4 27-6 40-6 12 1 30 8 36 10 6 1-1-2-1 0"/><text fill="#1e1e1e" dominant-baseline="text-before-edge" font-family="Virgil, Segoe UI Emoji" font-size="20" style="white-space:pre" transform="translate(1170 266)">inoutnft</text><path fill="none" stroke="#1e1e1e" stroke-linecap="round" stroke-width="2" d="M370 34c10 10 19 18 44 47m-44-47 44 47m0 0c23 21 21 23 0 46m0-46c24 22 23 25 0 46m0 0c-17 13-32 30-44 45m44-45-44 45m0 0c-25 25-21 25-45 0m45 0c-21 23-21 24-45 0m0 0-45-45m45 45-45-45m0 0c-22-21-24-22 0-46m0 46c-21-22-25-21 0-46m0 0c16-15 28-32 45-47m-45 47c12-15 27-28 45-47m0 0c22-22 24-24 45 0m-45 0c24-24 24-25 45 0"/><text fill="#1e1e1e" dominant-baseline="text-before-edge" font-family="Virgil, Segoe UI Emoji" font-size="20" style="white-space:pre" transform="translate(309 76)">Steam</text><text y="25" fill="#1e1e1e" dominant-baseline="text-before-edge" font-family="Virgil, Segoe UI Emoji" font-size="20" style="white-space:pre" transform="translate(309 76)">account</text><path fill="none" stroke="#1e1e1e" stroke-linecap="round" stroke-width="2" d="M370 370c14 16 34 34 44 47m-44-47c11 11 19 22 44 47m0 0c21 24 21 24 0 46m0-46c22 21 22 22 0 46m0 0c-13 10-25 24-44 45m44-45-44 45m0 0c-24 21-22 24-45 0m45 0c-24 22-21 21-45 0m0 0c-18-16-32-31-45-45m45 45-45-45m0 0c-21-24-22-24 0-46m0 46c-21-21-25-23 0-46m0 0c15-13 26-27 45-47m-45 47 45-47m0 0c22-24 23-22 45 0m-45 0c22-25 24-24 45 0"/><text fill="#1e1e1e" dominant-baseline="text-before-edge" font-family="Virgil, Segoe UI Emoji" font-size="20" style="white-space:pre" transform="translate(316 415)">Crypto</text><text y="25" fill="#1e1e1e" dominant-baseline="text-before-edge" font-family="Virgil, Segoe UI Emoji" font-size="20" style="white-space:pre" transform="translate(316 415)">wallet</text><path fill="none" stroke="#1e1e1e" stroke-linecap="round" stroke-width="2" d="m199 221 102-69m-100 68 99-66m-15 20 15-20m-15 20 15-20m-24 6c6-2 11-4 24-6m-24 6 24-6m-98 183 95 56m-96-54 94 55m-24-4 24 4m-24-4 24 4m-16-19 16 19m-16-19 16 19M989 33c8 11 21 21 44 47m-44-47 44 47m0 0c23 23 21 22 0 46m0-46c24 24 22 23 0 46m0 0c-17 18-37 34-44 45m44-45-44 45m0 0c-23 22-21 21-45 0m45 0c-21 21-22 23-45 0m0 0-45-45m45 45-45-45m0 0c-21-25-24-24 0-46m0 46c-21-22-21-22 0-46m0 0c15-19 31-35 45-47m-45 47c12-14 25-26 45-47m0 0c20-23 23-24 45 0m-45 0c22-25 22-25 45 0"/><text fill="#1e1e1e" dominant-baseline="text-before-edge" font-family="Virgil, Segoe UI Emoji" font-size="20" style="white-space:pre" transform="translate(928 75)">Steam</text><text y="25" fill="#1e1e1e" dominant-baseline="text-before-edge" font-family="Virgil, Segoe UI Emoji" font-size="20" style="white-space:pre" transform="translate(928 75)">bot</text><path fill="none" stroke="#1e1e1e" stroke-linecap="round" stroke-width="2" d="M988 376c11 13 26 26 44 47m-44-47 44 47m0 0c24 23 23 23 0 46m0-46c25 22 24 24 0 46m0 0-44 45m44-45-44 45m0 0c-20 21-21 23-45 0m45 0c-22 25-23 25-45 0m0 0c-16-16-30-28-45-45m45 45c-12-15-28-28-45-45m0 0c-21-22-21-22 0-46m0 46c-21-21-20-24 0-46m0 0c11-10 24-23 45-47m-45 47c10-12 22-23 45-47m0 0c23-25 22-25 45 0m-45 0c25-21 25-24 45 0"/><text fill="#1e1e1e" dominant-baseline="text-before-edge" font-family="Virgil, Segoe UI Emoji" font-size="20" style="white-space:pre" transform="translate(926 419)">Smart</text><text y="25" fill="#1e1e1e" dominant-baseline="text-before-edge" font-family="Virgil, Segoe UI Emoji" font-size="20" style="white-space:pre" transform="translate(926 419)">contract</text><path fill="none" stroke="#1e1e1e" stroke-linecap="round" stroke-width="2" d="m1119 207-101-56m103 59-103-60m24 4c-6-1-9-3-24-4m24 4-24-4m16 19c-5-4-6-10-16-19m16 19-16-19m100 182-105 66m104-66-102 67m15-20c-4 5-12 12-15 20m15-20-15 20m24-6c-7 1-18 3-24 6m24-6-24 6"/><path fill="none" stroke="#e03131" stroke-linecap="round" stroke-width="2" d="m425 49 468-4m-469 3 468-2m-23 9c8-4 18-5 23-9m-23 9 23-9m-23-8c8 2 18 8 23 8m-23-8 23 8"/><text fill="#1e1e1e" dominant-baseline="text-before-edge" font-family="Virgil, Segoe UI Emoji" font-size="20" style="white-space:pre" transform="translate(565 11)">You send item(s)</text><path fill="none" stroke="#e03131" stroke-linecap="round" stroke-width="2" d="m894 384-465 4m464-5-464 3m23-8c-7 4-11 3-23 8m23-8-23 8m23 9c-7-1-11-6-23-9m23 9-23-9"/><text fill="#1e1e1e" dominant-baseline="text-before-edge" font-family="Virgil, Segoe UI Emoji" font-size="20" style="white-space:pre" transform="translate(571 348)">We give you NFT(s)</text><path fill="none" stroke="#1971c2" stroke-linecap="round" stroke-width="2" d="M419 500h470m-472 0 471-2m-23 8c8-2 16-4 23-8m-23 8c5-3 12-4 23-8m-23-9 23 9m-23-9 23 9"/><text fill="#1e1e1e" dominant-baseline="text-before-edge" font-family="Virgil, Segoe UI Emoji" font-size="20" style="white-space:pre" transform="translate(566 466)">You give us NFT(s)</text><path fill="none" stroke="#1971c2" stroke-linecap="round" stroke-width="2" d="m895 163-486 3m485-3-483 5m24-9-24 9m24-9c-5 2-10 5-24 9m24 8c-5-4-14-5-24-8m24 8-24-8"/><text fill="#1e1e1e" dominant-baseline="text-before-edge" font-family="Virgil, Segoe UI Emoji" font-size="20" style="white-space:pre" transform="translate(558 130)">We give you item(s)</text></svg>